<svg preserveAspectRatio="none" overflow="visible" style="display: block;" width="76" height="76" viewBox="0 0 76 76" fill="none" xmlns="http://www.w3.org/2000/svg">
<g id="Group 45">
<path id="Ellipse 519" d="M76 38C76 58.9868 58.9868 76 38 76C17.0132 76 0 58.9868 0 38C0 17.0132 17.0132 0 38 0C58.9868 0 76 17.0132 76 38ZM7.6 38C7.6 54.7895 21.2105 68.4 38 68.4C54.7895 68.4 68.4 54.7895 68.4 38C68.4 21.2105 54.7895 7.6 38 7.6C21.2105 7.6 7.6 21.2105 7.6 38Z" fill="#DBE2FF"/>
<path id="Ellipse 520" d="M38 3.8C38 1.70132 39.7055 -0.0196855 41.7937 0.189835C47.1107 0.723315 52.2704 2.37395 56.9286 5.04992C62.6883 8.35867 67.4801 13.1194 70.8263 18.8575C74.1724 24.5956 75.956 31.1105 75.9992 37.7528C76.0424 44.3952 74.3437 50.9328 71.0725 56.7139C67.8013 62.495 63.0718 67.3177 57.3556 70.7011C51.6394 74.0845 45.1362 75.9104 38.4943 75.9968C31.8524 76.0832 25.3039 74.4271 19.5016 71.1935C14.809 68.5784 10.7371 65.0053 7.5418 60.7222C6.28689 59.0401 6.88392 56.6918 8.68296 55.6111V55.6111C10.482 54.5304 12.7989 55.131 14.0955 56.7812C16.5777 59.9405 19.6698 62.5867 23.2013 64.5548C27.8431 67.1416 33.0819 68.4666 38.3954 68.3974C43.709 68.3283 48.9115 66.8676 53.4845 64.1609C58.0575 61.4541 61.841 57.596 64.458 52.9711C67.075 48.3462 68.4339 43.1161 68.3994 37.8023C68.3648 32.4884 66.9379 27.2765 64.261 22.686C61.5841 18.0955 57.7507 14.2869 53.1429 11.6399C49.6373 9.62609 45.7766 8.33812 41.7902 7.83719C39.7079 7.57553 38 5.89868 38 3.8V3.8Z" fill="#758DFF"/>
<path id="Ellipse 521" d="M63.5918 37.9999C63.5918 52.1338 52.134 63.5917 38 63.5917C23.866 63.5917 12.4082 52.1338 12.4082 37.9999C12.4082 23.8659 23.866 12.408 38 12.408C52.134 12.408 63.5918 23.8659 63.5918 37.9999ZM18.5502 37.9999C18.5502 48.7417 27.2582 57.4497 38 57.4497C48.7418 57.4497 57.4498 48.7417 57.4498 37.9999C57.4498 27.258 48.7418 18.5501 38 18.5501C27.2582 18.5501 18.5502 27.258 18.5502 37.9999Z" fill="#DBE2FF"/>
<path id="Ellipse 522" d="M38 15.479C38 13.783 39.3799 12.389 41.0637 12.592C45.3261 13.106 49.4084 14.6867 52.9229 17.2093C57.2725 20.3313 60.5334 24.7389 62.2465 29.8115C63.9596 34.8842 64.0386 40.3663 62.4724 45.4862C61.2069 49.6231 58.9187 53.3551 55.8406 56.348C54.6246 57.5304 52.6822 57.2584 51.6539 55.9096V55.9096C50.6256 54.5608 50.9071 52.6484 52.0774 51.4208C54.1559 49.2406 55.7097 46.5966 56.599 43.6895C57.7893 39.7984 57.7293 35.6319 56.4273 31.7767C55.1254 27.9215 52.6471 24.5718 49.3414 22.199C46.8717 20.4263 44.033 19.2657 41.0583 18.792C39.3834 18.5253 38 17.1751 38 15.479V15.479Z" fill="#B9C4FF"/>
</g>
</svg>
